<svg width="122" height="163" viewBox="0 0 122 163" fill="none" xmlns="http://www.w3.org/2000/svg">
<path d="M60.8027 47.7568V69.0638L76.023 59.8222L60.8027 47.7568Z" fill="white"/>
<path d="M60.8 0C27.2723 0 0 27.2789 0 60.8V101.333C0 134.854 27.2723 162.133 60.8 162.133C94.3277 162.133 121.6 134.854 121.6 101.333V60.8C121.6 27.2789 94.3277 0 60.8 0ZM92.0648 106.353L58.2869 133.611C57.0643 134.598 55.5646 135.111 54.0446 135.111C53.0581 135.111 52.0584 134.895 51.1328 134.449C48.7885 133.328 47.2888 130.957 47.2888 128.355V97.3744L38.6754 105.994C37.3581 107.312 35.6288 107.967 33.8992 107.967C32.1698 107.967 30.4402 107.312 29.1229 105.994C26.4816 103.353 26.4816 99.0768 29.1229 96.4351L44.5189 81.0391L28.9744 65.3122C26.3533 62.6506 26.3802 58.3743 29.0285 55.753C31.6971 53.1319 35.9664 53.1588 38.5808 55.8071L47.2888 64.6231V33.7772C47.2888 31.1831 48.7749 28.8255 51.1056 27.6972C53.4362 26.5623 56.2194 26.8799 58.2394 28.481L92.0173 55.2669C93.7536 56.6384 94.7061 58.773 94.5643 60.9821C94.429 63.1911 93.22 65.1839 91.3282 66.3325L67.3189 80.9109L91.301 95.3002C93.1925 96.4351 94.4085 98.4213 94.5639 100.624C94.7194 102.826 93.7805 104.961 92.0648 106.353Z" fill="white"/>
<path d="M60.8027 114.222L76.0566 101.913L60.8027 92.7598V114.222Z" fill="white"/>
</svg>
