<svg width="252" height="29" viewBox="0 0 252 29" fill="none" xmlns="http://www.w3.org/2000/svg">
<path d="M0 28.6486V5.93256H4.6528L11.3231 16.8708L17.9605 5.93256H22.4493V28.6486H18.2557V12.7158L11.7167 23.4849H10.738L4.17712 12.6449V28.6486H0Z" fill="white"/>
<path d="M42.2028 5.93256V9.89124H31.3171V15.2131H41.1093V19.1228H31.3171V24.6899H42.3449V28.6486H27.1509V5.93256H42.2028Z" fill="white"/>
<path d="M61.3386 9.85308H54.5591V28.6486H50.3273V9.85308H43.5586V5.93256H61.3386V9.85308Z" fill="white"/>
<path d="M73.2473 5.93256L82.1154 28.6486H77.5611L75.7403 23.8121H65.8279L64.0073 28.6486H59.6333L68.5507 5.93256H73.2473ZM74.3407 20.1097L70.765 10.6328L67.2167 20.1097H74.3407Z" fill="white"/>
<path d="M91.5795 25.1753C93.9196 25.1753 95.7457 24.4283 95.7457 22.4816C95.7457 20.7639 94.8327 20.0169 90.8962 19.0737C85.2975 17.7432 83.3784 15.7312 83.3784 12.0996C83.3784 8.36443 86.8939 5.55627 91.2187 5.55627C95.5434 5.55627 98.4139 7.5029 99.551 10.6818L95.7841 12.2304C95.1334 10.4419 93.4111 9.3732 91.2953 9.3732C88.988 9.3732 87.5884 10.2511 87.5884 12.165C87.5884 13.7191 88.4303 14.4007 92.1099 15.2131C97.6102 16.4782 99.9501 18.4847 99.9501 22.1599C99.9501 26.2168 96.4018 28.9758 91.5905 28.9758C87.0962 28.9758 83.7447 26.8329 82.6074 23.3267L86.2214 21.6909C86.9596 23.8775 88.7147 25.1753 91.5795 25.1753Z" fill="white"/>
<path d="M103.597 28.6486V5.93256H108.249L114.92 16.8708L121.557 5.93256H126.046V28.6486H121.847V12.7158L115.308 23.4849H114.329L107.768 12.6449V28.6486H103.597Z" fill="white"/>
<path d="M142.257 5.93256L151.115 28.6486H146.561L144.74 23.8121H134.816L132.99 28.6486H128.616L137.534 5.93256H142.257ZM143.351 20.1097L139.77 10.6328L136.243 20.0825L143.351 20.1097Z" fill="white"/>
<path d="M153.668 5.93256H162.809C168.113 5.93256 171.175 8.56078 171.175 12.6831C171.175 14.826 170 16.5436 167.949 17.5906C168.909 17.913 169.736 18.5357 170.312 19.3659C170.887 20.1961 171.179 21.1895 171.142 22.1982V28.6486H166.91V22.4489C166.91 20.8622 165.964 19.9515 164.373 19.9515H157.812V28.676H153.646L153.668 5.93256ZM162.455 16.1892C165.576 16.1892 166.828 15.2458 166.828 12.9775C166.828 10.7092 165.56 9.82581 162.455 9.82581H157.834V16.1892H162.455Z" fill="white"/>
<path d="M190.186 9.85308H183.384V28.6486H179.157V9.85308H172.389V5.93256H190.186V9.85308Z" fill="white"/>
<path d="M217.336 9.85308H210.534V28.6486H206.309V9.85308H199.539V5.93256H217.336V9.85308Z" fill="white"/>
<path d="M227.107 28.6486L218.194 5.93256H222.781L229.517 23.5885L236.254 5.93256H240.709L231.824 28.6486H227.107Z" fill="white"/>
<path d="M245.356 1.01964H243.581V5.9271H242.487V1.01964H240.721V-3.05176e-05H245.368L245.356 1.01964Z" fill="white"/>
<path d="M246.139 5.93256V-3.05176e-05H247.352L249.091 2.8572L250.825 -3.05176e-05H252V5.93256H250.906V1.77212L249.2 4.58573H248.944L247.232 1.75575V5.93256H246.139Z" fill="white"/>
</svg>
