<svg width="218" height="52" viewBox="0 0 218 52" fill="none" xmlns="http://www.w3.org/2000/svg">
<path d="M77.1451 35.4778C75.424 34.4814 74.0955 33.1227 73.0991 31.4016C72.1027 29.6806 71.6196 27.7784 71.6196 25.7252C71.6196 23.6721 72.1027 21.7699 73.0991 20.0488C74.0955 18.3278 75.424 16.969 77.1451 15.9727C78.8661 14.9763 80.7683 14.4932 82.8819 14.4932C84.9954 14.4932 86.8977 14.9763 88.6187 15.9727C90.3397 16.969 91.6683 18.3278 92.6646 20.0488C93.661 21.7699 94.1441 23.6721 94.1441 25.7252C94.1441 27.7784 93.661 29.6806 92.6646 31.4016C91.6683 33.1227 90.3397 34.4814 88.6187 35.4778C86.8977 36.4742 84.9954 36.9573 82.8819 36.9573C80.7683 36.9573 78.8661 36.4742 77.1451 35.4778ZM86.5353 32.1867C87.6525 31.5526 88.4979 30.7072 89.132 29.5598C89.7661 28.4427 90.068 27.1443 90.068 25.7252C90.068 24.2759 89.7661 23.0078 89.132 21.8906C88.5174 20.7982 87.6206 19.891 86.5353 19.2638C85.4182 18.6297 84.2104 18.3278 82.9121 18.3278C81.5836 18.3278 80.3758 18.6297 79.2888 19.2638C78.2019 19.8978 77.3262 20.7433 76.6922 21.8906C76.0581 23.0078 75.7562 24.3061 75.7562 25.7252C75.7562 27.1745 76.0581 28.4427 76.6922 29.5598C77.3262 30.677 78.1717 31.5526 79.2888 32.1867C80.3758 32.8208 81.5836 33.1227 82.9121 33.1227C84.2104 33.1227 85.4182 32.8208 86.5353 32.1867ZM96.8314 14.9763H100.757V26.6914H100.968L106.463 21.166H111.294V21.4075L105.497 27.0839L111.566 36.2628V36.5044H106.916L102.749 29.8014L100.757 31.764V36.5044H96.8314V14.9763Z" fill="white"/>
<path d="M123.553 35.508C121.832 34.5418 120.443 33.1831 119.416 31.4922C118.39 29.7712 117.876 27.869 117.876 25.7252C117.876 23.6117 118.39 21.6793 119.416 19.9582C120.443 18.2372 121.802 16.9087 123.553 15.9425C125.274 14.9763 127.176 14.4932 129.259 14.4932C130.95 14.4932 132.49 14.7951 133.879 15.3688C135.268 15.9727 136.476 16.7879 137.472 17.8749L134.664 20.6225C133.94 19.8676 133.154 19.294 132.279 18.9014C131.403 18.5089 130.377 18.3278 129.229 18.3278C127.901 18.3278 126.693 18.6297 125.606 19.2336C124.489 19.8375 123.613 20.7131 122.979 21.8604C122.315 23.0078 122.013 24.2759 122.013 25.7252C122.013 27.1745 122.345 28.4427 123.009 29.59C123.674 30.7374 124.549 31.5828 125.666 32.2169C126.784 32.8208 127.991 33.1227 129.32 33.1227C131.313 33.1227 132.973 32.5188 134.241 31.3413C134.634 30.9789 134.996 30.526 135.298 29.9523C135.6 29.3787 135.812 28.7748 135.962 28.1105H129.199V24.6684H139.767C139.918 25.2421 139.978 25.8762 139.978 26.5707C139.978 27.9898 139.767 29.3183 139.344 30.526C138.921 31.7338 138.257 32.8208 137.382 33.7568C136.415 34.8135 135.268 35.5986 133.879 36.1421C132.52 36.6855 130.981 36.9573 129.32 36.9573C127.176 36.9573 125.274 36.4742 123.553 35.508Z" fill="white"/>
<path d="M145.443 35.9007C144.205 35.176 143.239 34.2098 142.545 32.9719C141.85 31.7339 141.518 30.345 141.518 28.8051C141.518 27.2955 141.85 25.9065 142.545 24.6686C143.239 23.4307 144.205 22.4343 145.443 21.7398C146.681 21.0152 148.1 20.683 149.67 20.683C151.24 20.683 152.629 21.0453 153.867 21.7398C155.105 22.4645 156.071 23.4307 156.766 24.6686C157.46 25.9065 157.792 27.2955 157.792 28.8051C157.792 30.345 157.46 31.7339 156.766 32.9719C156.071 34.2098 155.105 35.176 153.867 35.9007C152.629 36.6253 151.21 36.9574 149.67 36.9574C148.1 36.9574 146.711 36.6253 145.443 35.9007ZM151.814 32.7907C152.448 32.4284 152.961 31.9151 153.354 31.2206C153.747 30.5262 153.928 29.7411 153.928 28.8051C153.928 27.8993 153.747 27.1143 153.354 26.4198C152.961 25.7254 152.448 25.2121 151.814 24.8498C151.18 24.4874 150.486 24.3063 149.701 24.3063C148.946 24.3063 148.251 24.4874 147.587 24.8498C146.953 25.2121 146.44 25.7254 146.047 26.4198C145.655 27.1143 145.473 27.8993 145.473 28.8051C145.473 29.7109 145.655 30.496 146.047 31.1904C146.44 31.8849 146.953 32.3982 147.587 32.7605C148.221 33.1228 148.916 33.304 149.701 33.304C150.455 33.3342 151.15 33.153 151.814 32.7907ZM163.348 35.9007C162.11 35.176 161.144 34.2098 160.45 32.9719C159.755 31.7339 159.423 30.345 159.423 28.8051C159.423 27.2955 159.755 25.9065 160.45 24.6686C161.144 23.4307 162.11 22.4343 163.348 21.7398C164.586 21.0152 166.005 20.683 167.575 20.683C169.145 20.683 170.534 21.0453 171.772 21.7398C173.01 22.4645 173.976 23.4307 174.671 24.6686C175.365 25.9065 175.697 27.2955 175.697 28.8051C175.697 30.345 175.365 31.7339 174.671 32.9719C173.976 34.2098 173.01 35.176 171.772 35.9007C170.534 36.6253 169.115 36.9574 167.575 36.9574C166.005 36.9574 164.586 36.6253 163.348 35.9007ZM169.689 32.7907C170.323 32.4284 170.836 31.9151 171.229 31.2206C171.621 30.5262 171.802 29.7411 171.802 28.8051C171.802 27.8993 171.621 27.1143 171.229 26.4198C170.836 25.7254 170.323 25.2121 169.689 24.8498C169.055 24.4874 168.36 24.3063 167.575 24.3063C166.82 24.3063 166.126 24.4874 165.462 24.8498C164.828 25.2121 164.314 25.7254 163.922 26.4198C163.529 27.1143 163.348 27.8993 163.348 28.8051C163.348 29.7109 163.529 30.496 163.922 31.1904C164.314 31.8849 164.828 32.3982 165.462 32.7605C166.096 33.1228 166.79 33.304 167.575 33.304C168.36 33.3342 169.055 33.153 169.689 32.7907ZM180.377 42.1508C179.109 41.2751 178.234 40.2184 177.781 39.0106L181.464 37.5009C181.796 38.2558 182.28 38.8596 182.944 39.3125C183.608 39.7655 184.363 39.9768 185.208 39.9768C186.446 39.9768 187.443 39.5843 188.167 38.8295C188.892 38.0746 189.254 36.9876 189.254 35.5685V34.3608H189.013C188.53 35.0552 187.896 35.5685 187.111 35.9309C186.326 36.2932 185.45 36.4743 184.423 36.4743C183.155 36.4743 181.978 36.1422 180.891 35.5081C179.804 34.8439 178.928 33.9381 178.264 32.7303C177.6 31.5528 177.267 30.1639 177.267 28.5636C177.267 26.9935 177.6 25.6046 178.264 24.3969C178.928 23.2193 179.804 22.2833 180.891 21.619C181.978 20.9548 183.155 20.6528 184.423 20.6528C185.42 20.6528 186.326 20.834 187.111 21.1963C187.896 21.5586 188.53 22.0719 189.013 22.7664H189.254V21.1359H193.029V35.4176C193.029 37.048 192.696 38.4973 192.062 39.6749C191.428 40.8826 190.522 41.8186 189.315 42.4527C188.137 43.117 186.748 43.4189 185.178 43.4189C183.246 43.4793 181.646 43.0264 180.377 42.1508ZM188.077 31.7641C188.862 30.9791 189.254 29.9223 189.254 28.5938C189.254 27.2049 188.862 26.1481 188.107 25.3932C187.322 24.6384 186.386 24.2761 185.269 24.2761C184.152 24.2761 183.185 24.6686 182.4 25.4234C181.615 26.1783 181.223 27.2351 181.223 28.624C181.223 30.0129 181.615 31.0395 182.4 31.8245C183.185 32.5794 184.121 32.9719 185.269 32.9719C186.356 32.9115 187.322 32.519 188.077 31.7641Z" fill="white"/>
<path d="M195.836 14.9766H199.762V36.5047H195.836V14.9766ZM205.831 35.931C204.593 35.2365 203.657 34.2703 202.962 33.0324C202.268 31.7945 201.936 30.4056 201.936 28.8657C201.936 27.4164 202.268 26.0577 202.962 24.7895C203.657 23.5516 204.593 22.525 205.8 21.8003C207.008 21.0455 208.337 20.6832 209.816 20.6832C211.386 20.6832 212.775 21.0153 213.892 21.7098C215.04 22.4042 215.915 23.31 216.489 24.5178C217.093 25.6953 217.365 27.0239 217.365 28.443C217.365 28.8959 217.334 29.3488 217.274 29.7715H205.77C205.982 31.0094 206.465 31.9152 207.219 32.5493C208.004 33.1834 208.91 33.4853 209.997 33.4853C210.903 33.4853 211.688 33.3041 212.322 32.9116C212.986 32.5191 213.5 32.0058 213.862 31.3416L217.063 32.9116C215.493 35.6291 213.137 36.9878 209.937 36.9878C208.427 36.9576 207.068 36.6255 205.831 35.931ZM213.59 26.9635C213.56 26.4804 213.379 25.9973 213.077 25.5444C212.775 25.0613 212.322 24.6687 211.779 24.3668C211.235 24.0649 210.571 23.9139 209.846 23.9139C208.91 23.9139 208.095 24.1856 207.431 24.7291C206.767 25.2726 206.283 26.0275 205.982 26.9635H213.59Z" fill="white"/>
<path d="M53.2314 18.1767C55.3752 18.1767 57.1264 16.4255 57.1264 14.2817C57.1264 12.138 55.3752 10.3867 53.2314 10.3867C51.0877 10.3867 49.3364 12.138 49.3364 14.2817C49.3364 16.4255 51.0877 18.1767 53.2314 18.1767Z" fill="#34A853"/>
<path d="M41.5468 31.16C45.8343 31.16 49.3368 27.6576 49.3368 23.3701C49.3368 19.0826 45.8343 15.5801 41.5468 15.5801C37.2593 15.5801 33.7568 19.0826 33.7568 23.3701C33.7568 27.6576 37.2291 31.16 41.5468 31.16Z" fill="#EA4335"/>
<path d="M41.5468 51.9334C46.559 51.9334 50.6351 47.8573 50.6351 42.8451C50.6351 37.833 46.559 33.7568 41.5468 33.7568C36.5346 33.7568 32.4585 37.833 32.4585 42.8451C32.4585 47.8573 36.5346 51.9334 41.5468 51.9334Z" fill="#FBBC04"/>
<path d="M15.58 31.1599C24.1852 31.1599 31.1599 24.1852 31.1599 15.58C31.1599 6.97475 24.1852 0 15.58 0C6.97475 0 0 6.97475 0 15.58C0 24.1852 6.97475 31.1599 15.58 31.1599Z" fill="#4285F4"/>
</svg>
