<svg width="162" height="162" viewBox="0 0 162 162" fill="none" xmlns="http://www.w3.org/2000/svg">
<path fill-rule="evenodd" clip-rule="evenodd" d="M81 162C36.3364 162 0 125.663 0 81C0 36.3367 36.3364 0 81 0C125.664 0 162 36.3364 162 81C162 125.664 125.664 162 81 162ZM88.9206 111.79C88.9206 107.422 85.3674 103.869 81 103.869C76.6326 103.869 73.0794 107.422 73.0794 111.79C73.0794 116.157 76.6326 119.71 81 119.71C85.3674 119.71 88.9206 116.157 88.9206 111.79ZM81 83.3427C89.6626 83.3427 97.7471 87.2199 103.181 93.9802C104.63 95.7834 104.344 98.421 102.54 99.8705C101.766 100.492 100.839 100.795 99.9179 100.795C98.6925 100.795 97.4778 100.259 96.6501 99.2297C92.8149 94.4587 87.1108 91.7221 81 91.7221C74.8896 91.7221 69.1851 94.4587 65.3499 99.2301C63.9001 101.034 61.2629 101.32 59.4597 99.8708C57.6562 98.4213 57.3695 95.7841 58.819 93.9806C64.2529 87.2199 72.3374 83.3427 81 83.3427ZM81 62.8161C67.0294 62.8161 53.6865 68.8098 44.3937 79.261C42.856 80.9902 43.0113 83.6385 44.7405 85.1759C46.4696 86.7137 49.118 86.5583 50.6554 84.8291C58.3599 76.165 69.4202 71.1955 81 71.1955C92.5798 71.1955 103.64 76.1647 111.345 84.8291C112.172 85.7603 113.322 86.2349 114.477 86.2349C115.467 86.2349 116.462 85.8859 117.26 85.1759C118.989 83.6385 119.144 80.9902 117.607 79.261C108.313 68.8101 94.9706 62.8161 81 62.8161ZM131.847 70.5934C130.147 72.1628 127.497 72.0561 125.927 70.3555C114.382 57.8448 98.0068 50.6693 80.9997 50.6693C63.9925 50.6693 47.6169 57.8448 36.0725 70.3555C35.2464 71.2503 34.1213 71.704 32.9923 71.704C31.9763 71.704 30.9575 71.3366 30.1519 70.5934C28.4513 69.024 28.3449 66.3738 29.914 64.6731C36.3576 57.69 44.0039 52.189 52.6405 48.3235C61.5847 44.32 71.1259 42.2902 80.9997 42.2902C90.8735 42.2902 100.415 44.32 109.359 48.3235C117.995 52.189 125.642 57.69 132.085 64.6731C133.654 66.3735 133.548 69.0237 131.847 70.5934Z" fill="white"/>
</svg>
