<svg width="590" height="44" viewBox="0 0 590 44" fill="none" xmlns="http://www.w3.org/2000/svg">
<path d="M30.929 35.5019H13.6671C10.9622 35.5019 9.53852 34.153 9.53852 31.5645V20.6274C9.53852 17.3098 10.9622 15.8151 14.4501 15.8151H42.9233V7.35703H13.3112C4.94722 7.35703 0 11.9142 0 19.7889V31.1999C0 39.1476 4.69807 43.6318 13.3112 43.6318H31.107C39.2574 43.6318 44.0267 39.2205 44.0267 31.5645V21.5388H16.3009V29.3042H35.022V31.3822C35.022 34.1894 33.8831 35.5019 30.929 35.5019Z" fill="white"/>
<path d="M56.9464 31.8562C56.9464 29.5594 58.37 28.575 60.897 28.575H80.8638V30.4343C80.8638 33.7884 79.4402 35.1737 75.9522 35.1737H60.897C58.37 35.5019 56.9464 34.3352 56.9464 31.8562ZM50.5755 15.7057H77.0555C77.5751 15.6172 78.1078 15.6569 78.6093 15.8216C79.1109 15.9864 79.5668 16.2713 79.9392 16.6528C80.3117 17.0343 80.5898 17.5013 80.7506 18.015C80.9115 18.5288 80.9503 19.0744 80.8638 19.6066V20.919H60.5055C52.3907 20.919 47.5858 25.0752 47.5858 32.2207C47.5858 39.3663 52.3907 43.5224 60.5055 43.5224H76.7708C85.1704 43.5224 90.1176 38.9653 90.1176 31.0906V19.7889C90.1176 11.7319 86.0602 7.35703 77.4115 7.35703H50.5755V15.7057Z" fill="white"/>
<path d="M99.6561 43.6318H131.368V35.5019H105.956C105.173 35.5019 105.03 34.6269 105.707 34.2623L128.129 21.5753C129.506 20.9589 130.671 19.9357 131.477 18.6367C132.282 17.3377 132.69 15.8221 132.649 14.2839C132.675 13.3531 132.513 12.4269 132.173 11.5631C131.834 10.6993 131.324 9.91636 130.676 9.26308C130.029 8.6098 129.256 8.10018 128.408 7.76598C127.559 7.43178 126.653 7.28016 125.745 7.32057H93.9615V15.7057H119.409C119.556 15.693 119.703 15.7357 119.821 15.8258C119.939 15.9158 120.021 16.047 120.052 16.1947C120.083 16.3424 120.059 16.4964 119.987 16.6279C119.915 16.7594 119.798 16.8593 119.659 16.9088L97.2003 29.4135C95.8268 30.0339 94.664 31.0581 93.8593 32.3561C93.0546 33.6542 92.6442 35.1677 92.6802 36.7049C92.7176 38.568 93.4713 40.3407 94.7776 41.6378C96.0838 42.9348 97.837 43.6514 99.6561 43.6318Z" fill="white"/>
<path d="M144.644 22.268V20.3357C144.644 17.0181 146.067 15.6692 149.591 15.6692H165.002C167.849 15.6692 168.953 16.6171 168.953 18.9868C168.953 21.3565 167.849 22.268 165.002 22.268H144.644ZM175.751 35.5019H149.093C146.174 35.5019 144.644 34.08 144.644 31.3093V29.9604H165.394C173.544 29.9604 178.313 25.8043 178.313 18.6587C178.313 11.5131 173.544 7.35703 165.394 7.35703H148.737C140.373 7.35703 135.426 11.9142 135.426 19.7889V31.1999C135.426 39.2569 140.124 43.6318 148.737 43.6318H175.751V35.5019Z" fill="white"/>
<path d="M191.482 23.6533V20.3357C191.482 17.0181 192.621 15.6692 196.109 15.6692H209.705C212.837 15.6692 214.261 17.1275 214.261 19.7889C214.261 22.4502 212.837 23.6533 209.705 23.6533H191.482ZM182.122 20.0076V43.6318H191.482V31.528H209.278C212.588 31.528 213.584 32.6218 213.584 35.1737V43.486H223.087V35.5019C223.285 33.8529 222.927 32.1842 222.073 30.7721C221.218 29.3599 219.919 28.289 218.389 27.7365C218.31 27.711 218.24 27.6602 218.191 27.5913C218.141 27.5224 218.115 27.4392 218.115 27.3537C218.115 27.2682 218.141 27.185 218.191 27.1161C218.24 27.0473 218.31 26.9964 218.389 26.9709C220.052 26.2908 221.467 25.0966 222.437 23.5546C223.406 22.0125 223.882 20.1993 223.799 18.3671C223.799 11.2944 219.172 7.42994 210.88 7.42994H194.507C185.93 7.35703 182.122 12.1329 182.122 20.0076Z" fill="white"/>
<path d="M244.211 0V44H246.502V0H244.211Z" fill="white"/>
<path d="M266.515 4.88889V39.1111H286.322V36.8133H268.854V4.88889H266.515Z" fill="white"/>
<path d="M291.591 14.6667V39.1111H293.882V14.6667H291.591ZM290.779 7.87111C290.779 8.99555 291.639 9.87555 292.736 9.87555C293.834 9.87555 294.693 8.99555 294.693 7.87111C294.693 6.74666 293.834 5.86667 292.736 5.86667C291.639 5.86667 290.779 6.74666 290.779 7.87111Z" fill="white"/>
<path d="M309.896 39.1111H312.569L323.356 14.6667H320.922L311.328 36.8133L301.639 14.6667H299.11L309.896 39.1111Z" fill="white"/>
<path d="M338.066 39.6C342.695 39.6 346.418 37.4489 348.375 33.9778L346.466 32.8533C344.891 35.64 341.836 37.3511 338.066 37.3511C332.72 37.3511 328.616 33.3911 328.138 28.0133H349.855C349.902 27.6222 349.902 27.28 349.902 26.8889C349.902 19.5067 344.843 14.1778 337.827 14.1778C331.002 14.1778 325.752 19.7022 325.752 26.8889C325.752 34.2711 330.907 39.6 338.066 39.6ZM328.138 25.7644C328.616 20.3867 332.577 16.4267 337.827 16.4267C343.029 16.4267 347.039 20.3867 347.516 25.7644H328.138Z" fill="white"/>
<path d="M366.725 4.88889V39.1111H386.533V36.8133H369.064V22.9289H384.862V20.68H369.064V7.18666H386.294V4.88889H366.725Z" fill="white"/>
<path d="M413.285 39.1111V4.88889H410.994V19.4578C408.894 16.1822 405.409 14.1778 401.257 14.1778C394.575 14.1778 389.421 19.7022 389.421 26.8889C389.421 34.1733 394.337 39.6 401.257 39.6C405.362 39.6 408.894 37.4978 410.994 34.2711V39.1111H413.285ZM391.807 26.8889C391.807 20.9244 395.959 16.4267 401.448 16.4267C406.937 16.4267 411.089 20.9244 411.089 26.8889C411.089 32.8533 406.937 37.3511 401.448 37.3511C395.959 37.3511 391.807 32.8533 391.807 26.8889Z" fill="white"/>
<path d="M421.864 14.6667V39.1111H424.155V14.6667H421.864ZM421.053 7.87111C421.053 8.99555 421.912 9.87555 423.01 9.87555C424.108 9.87555 424.967 8.99555 424.967 7.87111C424.967 6.74666 424.108 5.86667 423.01 5.86667C421.912 5.86667 421.053 6.74666 421.053 7.87111Z" fill="white"/>
<path d="M428.906 14.6667V16.8667H434.825V33.88C434.825 37.3511 436.352 39.1111 439.454 39.1111H445.325V36.8622H439.502C437.975 36.8622 437.116 35.7867 437.116 33.9289V16.8667H446.375V14.6667H437.116V8.31111H434.825V14.6667H428.906Z" fill="white"/>
<path d="M451.881 14.6667V39.1111H454.172V14.6667H451.881ZM451.07 7.87111C451.07 8.99555 451.929 9.87555 453.027 9.87555C454.124 9.87555 454.983 8.99555 454.983 7.87111C454.983 6.74666 454.124 5.86667 453.027 5.86667C451.929 5.86667 451.07 6.74666 451.07 7.87111Z" fill="white"/>
<path d="M473.003 39.6C480.019 39.6 485.412 34.0756 485.412 26.8889C485.412 19.6044 480.114 14.1778 473.003 14.1778C465.987 14.1778 460.593 19.7022 460.593 26.8889C460.593 34.1733 465.891 39.6 473.003 39.6ZM462.98 26.8889C462.98 20.9244 467.275 16.4267 473.003 16.4267C478.73 16.4267 483.026 20.9244 483.026 26.8889C483.026 32.8533 478.73 37.3511 473.003 37.3511C467.275 37.3511 462.98 32.8533 462.98 26.8889Z" fill="white"/>
<path d="M510.534 24.8356V39.1111H512.825V24.3467C512.825 18.2356 508.911 14.1778 503.04 14.1778C499.127 14.1778 495.881 16.0356 493.924 19.0667V14.6667H491.633V39.1111H493.924L493.972 24.9822C494.354 19.9956 497.933 16.4267 502.754 16.4267C507.431 16.4267 510.534 19.8 510.534 24.8356Z" fill="white"/>
<path d="M531.06 26.3511C531.06 34.76 535.785 39.6978 543.946 39.6978C551.821 39.6978 556.833 34.5156 556.833 26.3511V4.88889H554.446V26.3511C554.446 33.1467 550.389 37.3511 543.946 37.3511C537.407 37.3511 533.446 33.1956 533.446 26.3511V4.88889H531.06V26.3511Z" fill="white"/>
<path d="M573.629 4.88889L559.931 39.1111H562.365L566.04 29.8222H583.748L587.423 39.1111H590L576.302 4.88889H573.629ZM566.947 27.5733L574.918 7.57778L582.841 27.5733H566.947Z" fill="white"/>
</svg>
