<svg width="223" height="39" viewBox="0 0 223 39" fill="none" xmlns="http://www.w3.org/2000/svg">
<path d="M12.086 12.3364C15.6975 12.3364 18.7084 14.1926 20.1105 16.1985V12.8375H25.6267V37.913H21.8804C20.903 37.913 20.1105 37.1219 20.1105 36.1434V34.5553C18.7084 36.5596 15.6975 38.4143 12.086 38.4143C5.21747 38.4143 0 32.548 0 25.3761C0 18.2042 5.21747 12.3364 12.086 12.3364ZM13.0895 17.3524C8.62527 17.3524 5.61582 20.862 5.61582 25.3761C5.61582 29.8887 8.62527 33.4006 13.0895 33.4006C17.5523 33.4006 20.5631 29.8887 20.5631 25.3761C20.5631 20.862 17.5526 17.3524 13.0895 17.3524Z" fill="white"/>
<path d="M31.8916 12.838H37.4092V16.248C38.9124 13.7413 41.7723 12.3369 45.0323 12.3369C50.8488 12.3369 54.6113 16.4493 54.6113 22.8189V37.9126H50.8636C49.8865 37.9126 49.0937 37.1201 49.0937 36.1431V23.7217C49.0937 19.7602 47.0867 17.3528 43.8793 17.3528C40.2179 17.3528 37.4094 20.2114 37.4094 25.5764V37.9126H33.6601C32.6844 37.9126 31.8916 37.1201 31.8916 36.1431V12.838Z" fill="white"/>
<path d="M71.0617 12.3361C74.6718 12.3361 77.6827 14.1922 79.0862 16.1982V0.300781H84.601V37.9126H80.8547C79.879 37.9126 79.0862 37.1215 79.0862 36.143V34.5549C77.6827 36.5592 74.6718 38.414 71.0617 38.414C64.1901 38.414 58.9746 32.5476 58.9746 25.3757C58.9746 18.2038 64.1904 12.3361 71.0617 12.3361ZM72.0655 17.352C67.6027 17.352 64.5932 20.8617 64.5932 25.3757C64.5932 29.8884 67.6027 33.4003 72.0655 33.4003C76.5266 33.4003 79.5361 29.8884 79.5361 25.3757C79.5361 20.8617 76.5266 17.352 72.0655 17.352Z" fill="white"/>
<path d="M90.8672 12.8384H96.3834V17.3018C97.3357 14.4432 100.144 12.5879 103.004 12.5879C103.704 12.5879 104.409 12.6386 105.161 12.7886V18.4551C104.206 18.1539 103.406 18.0038 102.404 18.0038C99.2433 18.0038 96.3836 20.6631 96.3836 25.6779V37.9131H92.6359C91.6603 37.9131 90.8675 37.1206 90.8675 36.1435V12.8384H90.8672Z" fill="white"/>
<path d="M120.035 38.4143C112.614 38.4143 106.896 32.646 106.896 25.3775C106.896 18.1054 112.614 12.3364 120.035 12.3364C127.458 12.3364 133.174 18.104 133.174 25.3775C133.174 32.646 127.458 38.4143 120.035 38.4143ZM120.035 33.301C124.448 33.301 127.558 29.8389 127.558 25.3775C127.558 20.9149 124.448 17.4529 120.035 17.4529C115.572 17.4529 112.463 20.9149 112.463 25.3775C112.463 29.8389 115.572 33.301 120.035 33.301Z" fill="white"/>
<path d="M140.403 7.37233C138.397 7.37233 136.692 5.7191 136.692 3.66056C136.692 1.65463 138.397 0 140.403 0C142.459 0 144.064 1.65491 144.064 3.66056C144.064 5.7191 142.459 7.37233 140.403 7.37233ZM137.647 12.8373H143.162V37.9128H139.415C138.438 37.9128 137.647 37.1186 137.647 36.1432V12.8373Z" fill="white"/>
<path d="M159.781 12.3361C163.392 12.3361 166.402 14.1922 167.807 16.1982V0.300781H173.323V37.9126H169.576C168.597 37.9126 167.807 37.1215 167.807 36.143V34.5549C166.402 36.5592 163.392 38.414 159.781 38.414C152.912 38.414 147.696 32.5476 147.696 25.3757C147.696 18.2038 152.912 12.3361 159.781 12.3361ZM160.784 17.352C156.323 17.352 153.314 20.8617 153.314 25.3757C153.314 29.8884 156.323 33.4003 160.784 33.4003C165.249 33.4003 168.258 29.8884 168.258 25.3757C168.258 20.8617 165.249 17.352 160.784 17.352Z" fill="white"/>
<path d="M182.914 16.0276H177.516V12.7002H182.914V5.68896H186.443V12.7002H193.807V16.0276H186.443V30.6033C186.443 33.6787 187.806 34.8888 190.629 34.8888C191.637 34.8888 193 34.6867 193.807 34.3351V37.5116C192.645 37.9659 191.436 38.1677 190.074 38.1677C185.788 38.1677 182.914 35.6947 182.914 30.9036V16.0276Z" fill="white"/>
<path d="M222.503 12.6992L210.703 37.9156H207.929L196.127 12.6992H200.061L209.29 32.7204L218.519 12.6992H222.503Z" fill="white"/>
</svg>
