<svg width="319" height="51" viewBox="0 0 319 51" fill="none" xmlns="http://www.w3.org/2000/svg">
<path d="M43.9979 39.3134H19.4501C15.5939 39.3134 13.5595 37.4207 13.5595 33.7772V18.4942C13.5595 13.8299 15.5939 11.7245 20.5701 11.7245H60.8404V0H18.961C7.03797 0 0.0273438 6.37973 0.0273438 17.4734V33.4865C0.0273438 44.8283 6.68354 50.9599 18.961 50.9599H44.3949C55.9635 50.9599 62.7685 44.7716 62.7685 33.9969V19.9331H23.1858V30.8212H49.8035V33.7772C49.8035 37.7113 48.2085 39.3134 43.9979 39.3134Z" fill="white"/>
<path d="M80.9943 34.6491C80.9943 31.3741 83.0145 29.9919 86.6084 29.9919H114.963V32.6146C114.963 37.3427 112.928 39.3134 107.945 39.3134H86.6084C83.0145 39.3134 80.9943 37.924 80.9943 34.6491ZM71.8925 11.7245H109.54C113.396 11.7245 114.984 13.6172 114.984 17.1828V19.2172H86.0485C74.4728 19.2172 67.6748 25.044 67.6748 35.0886C67.6748 45.1331 74.4728 50.9528 86.0485 50.9528H109.164C121.087 50.9528 128.098 44.5731 128.098 33.4794V17.4734C128.098 6.13163 122.328 0 110.058 0H71.8925V11.7245Z" fill="white"/>
<path d="M141.793 50.9529H186.862V39.3134H150.611C150.393 39.3274 150.177 39.2619 150.004 39.1288C149.831 38.9958 149.712 38.8043 149.67 38.5902C149.627 38.376 149.664 38.1537 149.773 37.9646C149.883 37.7756 150.057 37.6326 150.264 37.5625L182.162 19.9473C186.578 17.5443 188.613 14.2764 188.613 9.75391C188.613 3.78531 184.14 0 178.788 0H133.577V11.7245H169.729C170.799 11.7245 170.962 12.9296 170.076 13.3974L138.177 31.0126C133.825 33.4157 131.72 36.6481 131.72 41.206C131.766 43.8332 132.853 46.3346 134.741 48.1618C136.63 49.9889 139.165 50.9927 141.793 50.9529Z" fill="white"/>
<path d="M205.639 20.9681V18.2461C205.639 13.5818 207.674 11.6466 212.657 11.6466H234.554C238.623 11.6466 240.161 13.0076 240.161 16.3038C240.161 19.6 238.623 20.9681 234.554 20.9681H205.639ZM249.83 39.3134H211.955C207.816 39.3134 205.639 37.2719 205.639 33.4157V31.7427H235.114C246.689 31.7427 253.487 25.9159 253.487 15.8714C253.487 5.82683 246.689 0 235.114 0H211.459C199.543 0 192.525 6.37973 192.525 17.4734V33.4865C192.525 44.8283 199.189 50.9599 211.459 50.9599H249.83V39.3134Z" fill="white"/>
<path d="M272.222 22.9033V18.2461C272.222 13.5818 273.81 11.6466 278.786 11.6466H298.095C302.583 11.6466 304.603 13.6881 304.603 17.438C304.603 20.8192 302.583 22.9033 298.095 22.9033H272.222ZM258.896 17.7499V50.9529H272.222V33.9402H297.557C302.256 33.9402 303.703 35.4714 303.703 39.2567V50.9529H317.171V39.6111C317.171 34.0749 315.136 30.5944 310.508 28.6876C310.397 28.6487 310.301 28.5763 310.233 28.4804C310.165 28.3846 310.128 28.2699 310.128 28.1524C310.128 28.0348 310.165 27.9202 310.233 27.8243C310.301 27.7284 310.397 27.6561 310.508 27.6172C315.47 25.3772 318.185 21.2375 318.185 15.439C318.185 5.51495 311.592 0.00710097 299.811 0.00710097H276.489C264.325 1.23708e-05 258.896 6.68457 258.896 17.7499Z" fill="white"/>
</svg>
